<svg id="euOKCgdfBMH1" xmlns="http://www.w3.org/2000/svg" xmlns:xlink="http://www.w3.org/1999/xlink" viewBox="0 0 621 401" shape-rendering="geometricPrecision" text-rendering="geometricPrecision"><path d="M259.493988,382.609375c-27.712875-7.685852-52.655487-19.93399-74.620514-37.987854-36.178665-29.736542-58.896408-67.479675-66.699928-113.762238-6.49025-38.49356-.67807-75.396331,16.739555-110.250915c14.499817-29.01574,35.579254-52.508659,62.200363-71.055302c29.84346-20.791626,63.163544-32.233774,99.142243-35.231918c34.501098-2.87501,67.683929,3.573093,99.23764,17.934345c24.279328,11.0504,45.540131,26.385948,63.368408,46.19896c26.728791,29.704345,42.965882,64.282257,47.220276,104.252059c3.675781,34.533661-2.192566,67.44896-17.368103,98.549134-7.906067,16.202362-18.184509,30.900787-30.51065,44.266906-16.596039,17.996369-35.786622,32.337464-57.619294,43.129303-33.030151,16.326691-68.177215,22.408875-104.773132,20.141205-12.12561-.751342-24.095428-3.180359-36.316864-6.183685Z" fill="#0d1a21"/><path d="M428.512146,194.696899c2.203094,1.346375,1.598267,3.173035,1.603027,4.740784.047943,15.824585-.082153,31.650711.109009,47.473129.046021,3.809555-1.271973,4.832749-4.891601,4.808487-19.821656-.13295-39.646698.11052-59.466645-.118164-22.242676-.256637-39.220276-14.458252-44.10144-36.199203-3.948792-17.588089-1.223938-33.694367,10.131256-47.994446c7.83905-9.872116,18.446197-15.029175,30.707916-15.377274c21.138489-.600128,42.305451-.152526,63.459442-.298248c3.446381-.023758,4.186493,1.418366,4.123505,4.482041-.219513,10.669799.963135,8.876403-8.568024,8.935287-17.822967.110107-35.647125.00972-53.470733.039322-18.580078.030853-31.674042,11.224457-34.087647,29.71814-1.785583,13.681762.841156,26.26773,11.720093,35.906204c5.144165,4.557602,11.332092,7.065201,18.207825,7.133682c16.15628.16095,32.315735-.003906,48.47232.139328c3.30127.029266,4.382416-1.139359,4.30716-4.337082-.156739-6.659286-.247498-13.333404.030456-19.984894.177826-4.256515-1.560119-5.404739-5.550354-5.36679-15.989837.152114-31.982025.078414-47.973297.047805-8.891083-.017013-7.227905.22818-7.358154-7.618301-.03006-1.809753.262756-3.624878.756714-5.700638c4.619506-1.056381,8.929168-.588257,13.216095-.5979c19.385864-.04361,38.772033-.069886,58.623077.168731Z" fill="#46b16a"/><path d="M286.484497,194.229813c.502319-12.388199.79834-24.555375.529724-36.710038-.10379-4.69606,1.423462-6.380325,5.922119-5.764984c1.145447.156693,2.343201.140061,3.494324.007157c3.562225-.411301,4.510529,1.218475,4.49884,4.621872-.103698,30.165649-.119201,60.332077.016144,90.497482.016998,3.789719-1.261871,5.177597-4.90039,4.807068-1.484681-.15123-3.009034-.147721-4.495026-.004242-3.579102.345596-4.529572-1.334641-4.481354-4.707672.159546-11.164124-.106445-22.335602.141327-33.496476.090057-4.055862-1.420349-5.096649-5.194183-5.072052-19.332062.126038-38.665421.057602-57.998337.049744-7.023514-.002853-7.024353-.012207-7.026993-6.942169-.000687-1.833267.00557-3.666534.020081-5.956879c1.670685-1.633911,3.555694-1.020218,5.321106-1.026748c21.240158-.078568,42.480621.026809,64.152618-.302063Z" fill="#46b069"/><path d="M208.96405,194c-.000488,17.975815-.109802,35.452835.084229,52.926498.042145,3.795762-1.188736,5.171418-4.829758,4.768616-1.315353-.145523-2.674469-.147507-3.989242.000885-3.977631.449005-5.108384-1.322891-5.092041-5.185013.126739-29.958007.151718-59.917251-.023926-89.874771-.024491-4.178848,1.588806-4.952255,5.233078-4.932571c8.616318.04657,8.61734-.092865,8.617553,8.342605.00029,11.151246.000092,22.302506.000107,33.953751Z" fill="#45af69"/><path d="M428.587952,194.735046c-23.285309.160981-46.95987.194642-71.099854.178101c1.330689-.332993,3.126129-.856735,4.923035-.861755c20.451904-.057129,40.904022-.047211,61.355987-.008713c1.477539.002792,2.954377.368225,4.820832.692367Z" fill="#070d11"/><path d="M286.452942,194.002518c-.924988,1.859741-2.918671.93338-4.597168.939926-21.300629.083298-42.601608.066574-64.368027.117218c2.01384-1.181259,4.684342-1.057343,7.335053-1.057617c20.388946-.002014,40.777877-.000916,61.630142.000473Z" fill="#070d11"/></svg>
